# Blender v2.92.0 OBJ File: 'Cibi_Tools.blend'
# www.blender.org
o clamp_Cube.024
v -0.023606 -0.082963 -0.007079
v -0.009448 -0.082963 -0.007079
v -0.016527 -0.082963 0.010011
v -0.016527 -0.082963 -0.010011
v -0.026538 -0.082963 -0.000000
v 0.011077 -0.082963 -0.000000
v -0.006516 -0.082963 -0.000000
v -0.016527 0.090613 0.000000
v 0.043421 -0.017533 -0.030140
v 0.043421 0.207196 -0.030140
v 0.043421 -0.017533 0.030140
v 0.043421 0.207196 0.030140
v -0.104172 0.029812 0.030140
v -0.104172 0.159851 0.030140
v -0.104172 0.159851 -0.030140
v -0.104172 0.029812 -0.030140
v 0.104172 0.141935 -0.030140
v 0.104172 0.047728 -0.030140
v 0.104172 0.141935 0.030140
v 0.104172 0.047728 0.030140
v 0.043421 0.159851 0.030140
v 0.043421 0.029812 0.030140
v 0.043421 0.159851 -0.030140
v 0.043421 0.029812 -0.030140
v -0.101752 0.016006 0.030140
v -0.064685 -0.013949 0.030140
v -0.088246 -0.003547 0.030140
v -0.062196 0.205122 0.030140
v -0.101084 0.175129 0.029793
v -0.086385 0.196232 0.030140
v -0.064685 -0.013949 -0.030140
v -0.101752 0.016006 -0.030140
v -0.088246 -0.003547 -0.030140
v -0.101084 0.175129 -0.030487
v -0.062196 0.205122 -0.030140
v -0.086385 0.196232 -0.030140
v -0.016527 0.082753 -0.012194
v -0.028721 0.082753 0.000000
v -0.004333 0.082753 0.000000
v -0.007128 0.090613 0.000000
v -0.025926 0.090613 0.000000
v -0.016527 0.090613 -0.009399
v -0.016527 0.090613 0.009399
v -0.023173 0.090613 -0.006646
v -0.023173 0.090613 0.006646
v -0.009881 0.090613 0.006646
v -0.009881 0.090613 -0.006646
v -0.009448 -0.082963 0.007079
v -0.023606 -0.082963 0.007079
v 0.071044 -0.009745 0.030140
v 0.095631 0.016623 0.030140
v 0.095631 0.171268 0.030140
v 0.071044 0.199408 0.030140
v 0.095631 0.016623 -0.030140
v 0.071044 -0.009745 -0.030140
v 0.071044 0.199408 -0.030140
v 0.095631 0.171268 -0.030140
v -0.016527 0.082753 0.012194
v -0.025150 0.082753 -0.008623
v -0.025150 0.082753 0.008623
v -0.007904 0.082753 0.008623
v -0.007904 0.082753 -0.008623
v -0.016527 0.101547 -0.041186
v -0.016527 0.107322 -0.037514
v 0.009999 0.107322 -0.026526
v 0.012596 0.101547 -0.029123
v -0.045650 0.101547 -0.029123
v -0.043053 0.107322 -0.026526
v -0.016527 0.101547 0.041186
v -0.016527 0.107322 0.037514
v -0.043053 0.107322 0.026526
v -0.045650 0.101547 0.029123
v 0.012596 0.101547 0.029123
v 0.009999 0.107322 0.026526
v -0.057713 0.101547 0.000000
v -0.054041 0.107322 0.000000
v 0.020987 0.107322 0.000000
v 0.024659 0.101547 0.000000
v 0.002992 -0.082963 0.019519
v -0.044131 -0.082963 -0.000000
v -0.036046 -0.082963 0.019519
v -0.016527 -0.082963 -0.027604
v 0.002992 -0.082963 -0.019519
v -0.016527 -0.082963 0.027604
v -0.036046 -0.082963 -0.019519
v -0.073838 -0.109225 -0.035173
v -0.081923 -0.109225 -0.015654
v 0.040784 -0.109225 0.035173
v 0.048869 -0.109225 0.015654
v -0.081923 -0.082963 -0.015654
v -0.073838 -0.082963 -0.035173
v 0.040784 -0.082963 0.035173
v 0.048869 -0.082963 0.015654
v -0.008238 -0.118585 0.008289
v 0.002992 -0.109225 0.019519
v -0.016527 -0.118585 0.011723
v -0.016527 -0.109225 0.027604
v -0.028250 -0.118585 -0.000000
v -0.044131 -0.109225 -0.000000
v -0.024816 -0.118585 -0.008289
v -0.036046 -0.109225 -0.019519
v -0.004804 -0.118585 -0.000000
v 0.011077 -0.109225 -0.000000
v -0.024816 -0.118585 0.008289
v -0.036046 -0.109225 0.019519
v -0.016527 -0.118585 -0.011723
v -0.016527 -0.109225 -0.027604
v 0.002992 -0.109225 -0.019519
v -0.008238 -0.118585 -0.008289
v -0.016527 0.082753 -0.021025
v -0.001660 0.082753 -0.014867
v -0.031394 0.082753 -0.014867
v -0.016527 0.082753 0.021025
v -0.031394 0.082753 0.014867
v -0.001660 0.082753 0.014867
v -0.037552 0.082753 0.000000
v 0.004498 0.082753 0.000000
v -0.016527 0.086480 -0.015277
v -0.005724 0.086480 -0.010803
v -0.027330 0.086480 -0.010803
v -0.016527 0.086480 0.015277
v -0.027330 0.086480 0.010803
v -0.005724 0.086480 0.010803
v -0.031804 0.086480 0.000000
v -0.001250 0.086480 0.000000
v 0.036945 0.036288 0.030140
v 0.036945 0.036288 -0.030140
v 0.036945 0.153375 0.030140
v 0.036945 0.153375 -0.030140
v -0.104172 0.038971 -0.030140
v -0.104172 0.150692 -0.030140
v -0.104172 0.038971 0.030140
v -0.104172 0.150692 0.030140
v -0.004172 -0.118585 0.012355
v 0.000946 -0.118585 -0.000000
v -0.034000 -0.118585 -0.000000
v -0.028882 -0.118585 0.012355
v -0.004172 -0.118585 -0.012355
v -0.016527 -0.118585 -0.017473
v -0.016527 -0.118585 0.017473
v -0.028882 -0.118585 -0.012355
v -0.010349 -0.127894 0.006178
v -0.007790 -0.127894 -0.000000
v -0.025264 -0.127894 -0.000000
v -0.022705 -0.127894 0.006178
v -0.010349 -0.127894 -0.006178
v -0.016527 -0.127894 -0.008737
v -0.016527 -0.127894 0.008737
v -0.022705 -0.127894 -0.006178
vt 0.633408 0.732524
vt 0.655903 0.689266
vt 0.506272 0.714234
vt 0.510361 0.644628
vt 0.597728 0.620846
vt 0.552941 0.640369
vt 0.675988 0.728265
vt 0.623027 0.772511
vt 0.641721 0.642369
vt 0.552979 0.766671
vt 0.588620 0.752047
vt 0.563322 0.600382
vt 0.848757 0.079564
vt 0.854975 0.068873
vt 0.865666 0.075090
vt 0.858139 0.080829
vt 0.843018 0.072037
vt 0.844283 0.062655
vt 0.000000 0.000000
vt 0.000000 0.000000
vt 0.000000 0.000000
vt 0.000000 0.000000
vt 0.000000 0.000000
vt 0.000000 0.000000
vt 0.530445 0.683627
vt 0.544627 0.730524
vt 0.633369 0.606222
vt 0.680077 0.658659
vt 0.164523 0.670277
vt 0.141145 0.690495
vt 0.088893 0.671846
vt 0.141014 0.620315
vt 0.158718 0.745881
vt 0.189516 0.748420
vt 0.213074 0.798548
vt 0.139702 0.797829
vt 0.213078 0.728154
vt 0.265388 0.746993
vt 0.215488 0.696983
vt 0.195295 0.673110
vt 0.214427 0.620962
vt 0.265950 0.673432
vt 0.139061 0.721786
vt 0.088354 0.745202
vt 0.068772 0.664339
vt 0.132095 0.600742
vt 0.068783 0.754072
vt 0.285559 0.754532
vt 0.221982 0.818144
vt 0.285559 0.664521
vt 0.132087 0.817964
vt 0.222001 0.600807
vt 0.056172 0.877842
vt 0.056172 0.781592
vt 0.124231 0.713533
vt 0.220481 0.713533
vt 0.288540 0.781592
vt 0.288540 0.877842
vt 0.220481 0.945901
vt 0.124231 0.945901
vt 0.501166 0.933584
vt 0.485023 0.913653
vt 0.505025 0.906726
vt 0.510249 0.914570
vt 0.000000 0.000000
vt 0.000000 0.000000
vt 0.000000 0.000000
vt 0.000000 0.000000
vt 0.536574 0.576060
vt 0.592672 0.576060
vt 0.612985 0.625099
vt 0.516262 0.625099
vt 0.632340 0.536392
vt 0.681379 0.556705
vt 0.592672 0.440626
vt 0.536574 0.440626
vt 0.516261 0.391588
vt 0.612985 0.391588
vt 0.496906 0.480294
vt 0.447868 0.459981
vt 0.632340 0.480294
vt 0.681379 0.459981
vt 0.496906 0.536392
vt 0.447868 0.556705
vt 0.744900 0.447343
vt 0.714969 0.477273
vt 0.672641 0.477273
vt 0.642710 0.447343
vt 0.642710 0.405014
vt 0.672641 0.375084
vt 0.714969 0.375084
vt 0.744900 0.405014
vt 0.000000 0.000000
vt 0.000000 0.000000
vt 0.000000 0.000000
vt 0.000000 0.000000
vt 0.000000 0.000000
vt 0.000000 0.000000
vt 0.000000 0.000000
vt 0.000000 0.000000
vt 0.000000 0.000000
vt 0.000000 0.000000
vt 0.000000 0.000000
vt 0.000000 0.000000
vt 0.528214 0.735685
vt 0.471167 0.735685
vt 0.471167 0.602112
vt 0.528214 0.602112
vt 0.528214 0.846493
vt 0.528214 0.980066
vt 0.471167 0.980066
vt 0.471167 0.846493
vt 0.178892 0.893751
vt 0.184115 0.901595
vt 0.182504 0.910896
vt 0.174472 0.915977
vt 0.165018 0.914570
vt 0.159795 0.906726
vt 0.161406 0.897425
vt 0.169438 0.892343
vt 0.549347 0.894667
vt 0.546661 0.920107
vt 0.527735 0.910896
vt 0.529346 0.901595
vt 0.487709 0.888213
vt 0.507738 0.872116
vt 0.514668 0.892343
vt 0.506636 0.897425
vt 0.533204 0.874736
vt 0.524122 0.893751
vt 0.526632 0.936205
vt 0.519702 0.915977
vt 0.704440 0.106190
vt 0.703733 0.052524
vt 0.734357 0.052121
vt 0.735063 0.105787
vt 0.104114 0.217325
vt 0.104114 0.264130
vt 0.076806 0.256431
vt 0.052500 0.228612
vt 0.044056 0.199613
vt 0.733908 0.018045
vt 0.733836 0.025966
vt 0.703212 0.026370
vt 0.703284 0.018449
vt 0.210986 0.045507
vt 0.234279 0.055791
vt 0.247630 0.075120
vt 0.250022 0.088769
vt 0.104114 0.088769
vt 0.104114 0.041964
vt 0.704883 0.139754
vt 0.735506 0.139350
vt 0.735710 0.154871
vt 0.705087 0.155275
vt 0.103126 0.264660
vt 0.103125 0.217698
vt 0.249526 0.217697
vt 0.247126 0.231392
vt 0.233729 0.250786
vt 0.210358 0.261105
vt 0.044056 0.106481
vt 0.052500 0.075730
vt 0.076806 0.049663
vt 0.250022 0.217325
vt 0.246975 0.232434
vt 0.232440 0.253297
vt 0.208526 0.262080
vt 0.613293 0.515809
vt 0.639638 0.515462
vt 0.639691 0.519465
vt 0.613346 0.519812
vt 0.042864 0.106479
vt 0.051336 0.077383
vt 0.075724 0.049470
vt 0.103125 0.041745
vt 0.103125 0.088707
vt 0.042865 0.199926
vt 0.207889 0.043802
vt 0.231884 0.052614
vt 0.246468 0.073547
vt 0.249526 0.088707
vt 0.720069 0.551066
vt 0.521199 0.551066
vt 0.529926 0.542340
vt 0.720069 0.538725
vt 0.735256 0.120367
vt 0.704632 0.120770
vt 0.705717 0.203133
vt 0.736341 0.202730
vt 0.707090 0.307365
vt 0.706367 0.252416
vt 0.736990 0.252012
vt 0.737714 0.306962
vt 0.521933 0.375679
vt 0.720792 0.377758
vt 0.720663 0.390098
vt 0.530568 0.384496
vt 0.737886 0.320046
vt 0.707263 0.320450
vt 0.738045 0.332119
vt 0.707422 0.332522
vt 0.703561 0.039433
vt 0.734184 0.039029
vt 0.738139 0.339239
vt 0.707516 0.339643
vt 0.871058 0.204344
vt 0.878494 0.201311
vt 0.891492 0.214294
vt 0.870784 0.223388
vt 0.075725 0.256935
vt 0.051337 0.230781
vt 0.736557 0.219117
vt 0.705933 0.219520
vt 0.736798 0.237432
vt 0.706174 0.237835
vt 0.881938 0.193031
vt 0.901410 0.193060
vt 0.863673 0.184734
vt 0.860206 0.192937
vt 0.840706 0.192856
vt 0.850680 0.171677
vt 0.854181 0.233342
vt 0.855527 0.232384
vt 0.856485 0.234779
vt 0.853886 0.235269
vt 0.868396 0.291982
vt 0.799060 0.251651
vt 0.871338 0.162619
vt 0.807080 0.126633
vt 0.873739 0.094136
vt 0.780716 0.189948
vt 0.849394 0.216821
vt 0.892702 0.169161
vt 0.942947 0.134380
vt 0.961355 0.195911
vt 0.871101 0.181626
vt 0.878398 0.184529
vt 0.863658 0.201411
vt 0.935159 0.259302
vt 0.916560 0.166294
vt 0.962422 0.220457
vt 0.921691 0.234935
vt 0.897999 0.205321
vt 0.850136 0.292074
vt 0.887779 0.296236
vt 0.902236 0.336993
vt 0.831575 0.331101
vt 0.791627 0.206207
vt 0.845899 0.160402
vt 0.860356 0.201159
vt 0.830655 0.224811
vt 0.956508 0.291188
vt 0.917480 0.272584
vt 0.785713 0.276938
vt 0.826444 0.262460
vt 0.887920 0.152667
vt 0.886583 0.153624
vt 0.885623 0.151237
vt 0.888216 0.150746
vt 0.521199 0.375844
vt 0.529926 0.384570
vt 0.520101 0.550891
vt 0.528919 0.542256
vt 0.718960 0.552970
vt 0.719089 0.540630
vt 0.491572 0.386401
vt 0.465227 0.386748
vt 0.465174 0.382745
vt 0.491519 0.382398
vt 0.720070 0.375844
vt 0.720070 0.388185
vt 0.906229 0.239205
vt 0.890086 0.219274
vt 0.858049 0.278121
vt 0.883515 0.280742
vt 0.864620 0.216653
vt 0.844591 0.232751
vt 0.903544 0.264644
vt 0.841906 0.258191
vn -0.0000 0.6316 0.7753
vn -0.5482 0.6316 0.5482
vn -0.7071 0.0035 0.7071
vn -0.0000 0.0035 1.0000
vn -0.5482 0.6316 -0.5482
vn -0.0000 0.6316 -0.7753
vn 0.0000 0.0035 -1.0000
vn -0.7071 0.0035 -0.7071
vn -0.7753 0.6316 0.0000
vn -1.0000 0.0035 -0.0000
vn 0.5482 0.6316 0.5482
vn 0.7071 0.0035 0.7071
vn 0.0000 1.0000 0.0000
vn 0.7753 0.6316 0.0000
vn 0.5482 0.6316 -0.5482
vn 1.0000 0.0035 -0.0000
vn 0.7071 0.0035 -0.7071
vn 0.4821 -0.7315 -0.4821
vn 0.0000 -0.7315 -0.6819
vn -0.6819 -0.7315 -0.0000
vn -0.4821 -0.7315 0.4821
vn -0.0000 -0.7315 0.6819
vn 0.4821 -0.7315 0.4821
vn 0.6819 -0.7315 -0.0000
vn -0.4821 -0.7315 -0.4821
vn 0.0000 0.5366 -0.8438
vn 0.5967 0.5366 -0.5967
vn -0.5967 0.5366 -0.5967
vn 0.0000 0.5366 0.8438
vn -0.5967 0.5366 0.5967
vn 0.5967 0.5366 0.5967
vn -0.8438 0.5366 0.0000
vn 0.8438 0.5366 0.0000
vn -0.4764 -0.8792 0.0000
vn -0.3369 -0.8792 -0.3369
vn -0.4736 -0.7426 -0.4736
vn -0.6698 -0.7426 -0.0000
vn 0.5449 0.6374 -0.5449
vn 0.7706 0.6374 0.0000
vn 0.0000 -1.0000 0.0000
vn 0.5449 0.6374 0.5449
vn -0.0000 0.6374 -0.7706
vn -0.0000 0.6374 0.7706
vn -0.5449 0.6374 0.5449
vn -0.7706 0.6374 -0.0000
vn -0.5449 0.6374 -0.5449
vn -0.7004 -0.7138 0.0000
vn 0.0190 -0.9998 0.0000
vn -0.7004 0.7138 0.0000
vn 0.0190 0.9998 0.0000
vn 0.6698 -0.7426 0.0000
vn 0.4736 -0.7426 0.4736
vn -0.0000 -0.7426 0.6698
vn -0.4736 -0.7426 0.4736
vn 0.0000 -0.7426 -0.6698
vn 0.4736 -0.7426 -0.4736
vn 0.3369 -0.8792 0.3369
vn 0.0000 -0.8792 0.4764
vn 0.0000 -0.8792 -0.4764
vn 0.3369 -0.8792 -0.3369
vn 0.4764 -0.8792 0.0000
vn -0.3369 -0.8792 0.3369
vn 0.0942 0.7312 -0.6756
vn -0.1363 0.7280 -0.6719
vn -0.1376 0.7282 0.6715
vn 0.0934 0.7314 0.6755
vn 0.0003 -0.0001 -1.0000
vn 0.4069 0.6436 -0.6482
vn 0.6578 0.3600 -0.6616
vn 0.7289 0.1040 -0.6767
vn -0.7223 0.0719 0.6878
vn -0.6915 0.2951 0.6593
vn -0.6837 0.2926 -0.6685
vn -0.7268 0.0731 -0.6830
vn -0.1659 -0.7266 -0.6667
vn -0.4839 -0.5851 -0.6507
vn -0.6935 -0.2843 -0.6620
vn -0.7229 -0.0629 -0.6881
vn -0.0000 0.0000 -1.0000
vn 0.0890 -0.7332 -0.6742
vn 0.6578 0.3600 0.6616
vn 0.7289 0.1040 0.6767
vn 0.0890 -0.7332 0.6742
vn -0.0000 -0.0000 1.0000
vn -0.7229 -0.0629 0.6881
vn -0.6935 -0.2843 0.6620
vn -0.4839 -0.5851 0.6507
vn -0.1659 -0.7266 0.6667
vn 0.7283 -0.0982 -0.6782
vn 0.6582 -0.3675 -0.6571
vn 0.3951 -0.6479 -0.6512
vn -0.4680 0.6052 -0.6440
vn -0.7114 0.0000 0.7028
vn -0.7114 0.0000 -0.7028
vn 0.4069 0.6436 0.6482
vn -0.0003 0.0001 1.0000
vn 0.7283 -0.0982 0.6782
vn -0.4655 0.6043 0.6466
vn 0.3951 -0.6479 0.6512
vn 0.6582 -0.3675 0.6571
vn 0.9239 -0.0000 0.3827
vn 0.3140 -0.8960 0.3140
vn 0.4441 -0.8960 -0.0000
vn 0.7071 0.0000 -0.7071
vn -0.7071 -0.0000 0.7071
vn 0.3095 -0.8991 0.3095
vn 0.4377 -0.8991 -0.0000
vn -0.4377 -0.8991 0.0000
vn -0.3095 -0.8991 0.3095
vn -0.4798 -0.7345 0.4798
vn -0.4441 -0.8960 -0.0000
vn -0.0000 -0.7345 -0.6786
vn 0.4798 -0.7345 -0.4798
vn 0.3095 -0.8991 -0.3095
vn 0.0000 -0.8991 -0.4377
vn -0.0000 -0.7345 0.6786
vn -0.0000 -0.8991 0.4377
vn -0.3140 -0.8960 -0.3140
vn -0.3095 -0.8991 -0.3095
vn -0.9239 0.0000 -0.3827
vn -0.3827 -0.0000 0.9239
vn 0.3827 0.0000 -0.9239
g clamp_Cube.024_tools_metal
s 1
f 43/1/1 45/2/2 49/3/3 3/4/4
f 44/5/5 42/6/6 4/7/7 1/8/8
f 45/2/2 41/9/9 5/10/10 49/3/3
f 46/11/11 43/1/1 3/4/4 48/12/12
f 42/13/6 8/14/13 40/15/14 47/16/15
f 44/17/5 41/18/9 8/14/13 42/13/6
f 41/19/9 45/20/2 43/21/1 8/22/13
f 8/22/13 43/21/1 46/23/11 40/24/14
f 41/9/9 44/5/5 1/8/8 5/10/10
f 47/25/15 40/26/14 7/27/16 2/28/17
f 40/26/14 46/11/11 48/12/12 7/27/16
f 42/6/6 47/25/15 2/28/17 4/7/7
f 111/29/18 110/30/19 63/31/19 66/32/18
f 116/33/20 114/34/21 72/35/21 75/36/20
f 114/34/21 113/37/22 69/38/22 72/35/21
f 115/39/23 117/40/24 78/41/24 73/42/23
f 117/40/24 111/29/18 66/32/18 78/41/24
f 113/37/22 115/39/23 73/42/23 69/38/22
f 112/43/25 116/33/20 75/36/20 67/44/25
f 110/30/19 112/43/25 67/44/25 63/31/19
f 64/45/26 65/46/27 66/32/27 63/31/26
f 68/47/28 64/45/26 63/31/26 67/44/28
f 70/48/29 71/49/30 72/35/30 69/38/29
f 74/50/31 70/48/29 69/38/29 73/42/31
f 67/44/28 75/36/32 76/51/32 68/47/28
f 65/46/27 77/52/33 78/41/33 66/32/27
f 75/36/32 72/35/30 71/49/30 76/51/32
f 77/52/33 74/50/31 73/42/31 78/41/33
f 77/53/13 65/54/13 64/55/13 68/56/13 76/57/13 71/58/13 70/59/13 74/60/13
f 98/61/34 100/62/35 149/63/36 144/64/37
f 60/65/38 38/66/39 124/67/39 122/68/38
f 62/69/40 37/70/40 110/71/40 111/72/40
f 37/70/40 59/73/40 112/74/40 110/71/40
f 60/75/40 58/76/40 113/77/40 114/78/40
f 58/76/40 61/79/40 115/80/40 113/77/40
f 59/73/40 38/81/40 116/82/40 112/74/40
f 39/83/40 62/69/40 111/72/40 117/84/40
f 38/81/40 60/75/40 114/78/40 116/82/40
f 61/79/40 39/83/40 117/84/40 115/80/40
f 118/85/40 119/86/40 125/87/40 123/88/40 121/89/40 122/90/40 124/91/40 120/92/40
f 38/66/39 59/93/41 120/94/41 124/67/39
f 58/95/42 60/65/38 122/68/38 121/96/42
f 37/97/43 62/98/44 119/99/44 118/100/43
f 39/101/45 61/102/46 123/103/46 125/104/45
f 62/98/44 39/101/45 125/104/45 119/99/44
f 61/102/46 58/95/42 121/96/42 123/103/46
f 59/93/41 37/97/43 118/100/43 120/94/41
f 129/105/47 128/106/47 133/107/48 131/108/48
f 127/109/49 130/110/50 132/111/50 126/112/49
f 127/109/49 126/112/49 128/106/47 129/105/47
f 143/113/51 142/114/52 148/115/53 145/116/54 144/117/37 149/118/36 147/119/55 146/120/56
f 94/121/57 96/122/58 148/123/53 142/124/52
f 106/125/59 109/126/60 146/127/56 147/128/55
f 102/129/61 94/121/57 142/124/52 143/130/51
f 109/126/60 102/129/61 143/130/51 146/127/56
f 100/62/35 106/125/59 147/128/55 149/63/36
f 96/122/58 104/131/62 145/132/54 148/123/53
f 104/131/62 98/61/34 144/64/37 145/132/54
g clamp_Cube.024_tools_paint
f 10/133/63 35/134/64 28/135/65 12/136/66
f 23/137/67 10/138/63 56/139/68 57/140/69 17/141/70
f 14/142/71 29/143/72 34/144/73 15/145/74
f 31/146/75 33/147/76 32/148/77 16/149/78 24/150/79 9/151/80
f 57/152/69 52/153/81 19/154/82 17/155/70
f 11/156/83 22/157/84 13/158/85 25/159/86 27/160/87 26/161/88
f 9/151/80 24/150/79 18/162/89 54/163/90 55/164/91
f 15/165/74 34/166/73 36/167/92 35/168/64 10/138/63 23/137/67
f 16/169/78 13/170/85 132/171/93 130/172/94
f 19/173/82 52/174/81 53/175/95 12/176/66 21/177/96
f 20/178/97 19/173/82 21/177/96 22/157/84
f 21/177/96 12/176/66 28/179/65 30/180/98 29/181/72 14/182/71
f 15/183/74 23/184/67 129/185/79 131/186/94
f 53/187/95 56/188/68 10/133/63 12/136/66
f 18/189/89 17/155/70 19/154/82 20/190/97
f 24/150/79 23/137/67 17/141/70 18/162/89
f 31/191/75 9/192/80 11/193/83 26/194/88
f 21/195/96 14/196/71 133/197/93 128/198/84
f 31/191/75 26/194/88 27/199/87 33/200/76
f 33/200/76 27/199/87 25/201/86 32/202/77
f 28/135/65 35/134/64 36/203/92 30/204/98
f 30/204/98 36/203/92 34/144/73 29/143/72
f 25/201/86 13/205/85 16/206/78 32/202/77
f 48/207/13 3/208/13 84/209/13 79/210/13
f 50/211/99 51/212/100 20/178/97 22/157/84 11/156/83
f 51/213/100 54/214/90 18/189/89 20/190/97
f 54/214/90 51/213/100 50/215/99 55/216/91
f 52/153/81 57/152/69 56/188/68 53/187/95
f 55/216/91 50/215/99 11/193/83 9/192/80
f 3/208/13 49/217/13 81/218/13 84/209/13
f 4/219/13 2/220/13 83/221/13 82/222/13
f 93/223/101 92/224/101 88/225/101 89/226/101
f 95/227/102 103/228/103 89/226/40 88/225/40
f 85/229/79 82/222/79 107/230/79 101/231/79
f 82/222/79 83/221/104 108/232/104 107/230/79
f 83/221/104 6/233/104 103/228/104 108/232/104
f 81/218/105 80/234/105 99/235/105 105/236/105
f 6/233/13 79/210/13 92/224/13 93/223/13
f 1/237/13 4/219/13 82/222/13 85/229/13
f 5/238/13 1/237/13 85/229/13 80/234/13
f 2/220/13 7/239/13 6/233/13 83/221/13
f 7/239/13 48/207/13 79/210/13 6/233/13
f 49/217/13 5/238/13 80/234/13 81/218/13
f 84/209/84 81/218/105 105/236/105 97/240/84
f 103/241/103 95/242/102 134/243/106 135/244/107
f 136/245/108 137/246/109 105/247/110 99/248/111
f 107/249/112 108/250/113 138/251/114 139/252/115
f 97/253/116 105/247/110 137/246/109 140/254/117
f 95/242/102 97/253/116 140/254/117 134/243/106
f 101/255/118 107/249/112 139/252/115 141/256/119
f 141/256/119 136/245/108 99/248/111 101/255/118
f 108/250/113 103/241/103 135/244/107 138/251/114
f 79/210/84 84/209/84 97/240/84 95/227/84
f 90/257/120 91/258/120 86/259/120 87/260/120
f 101/231/118 99/235/111 87/260/40 86/259/40
f 99/235/105 80/234/105 90/257/121 87/260/121
f 103/228/104 6/233/104 93/223/122 89/226/122
f 79/210/84 95/227/84 88/225/121 92/224/121
f 80/234/13 85/229/13 91/258/13 90/257/13
f 85/229/79 101/231/79 86/259/122 91/258/122
f 23/184/67 24/261/79 127/262/79 129/185/79
f 22/263/84 21/195/96 128/198/84 126/264/84
f 13/265/85 22/263/84 126/264/84 132/266/93
f 14/267/71 15/268/74 131/269/94 133/270/93
f 24/261/79 16/271/78 130/272/94 127/262/79
f 94/273/57 102/274/61 135/244/107 134/243/106
f 98/275/34 104/276/62 137/246/109 136/245/108
f 109/277/60 106/278/59 139/252/115 138/251/114
f 104/276/62 96/279/58 140/254/117 137/246/109
f 96/279/58 94/273/57 134/243/106 140/254/117
f 106/278/59 100/280/35 141/256/119 139/252/115
f 100/280/35 98/275/34 136/245/108 141/256/119
f 102/274/61 109/277/60 138/251/114 135/244/107
