# Blender v2.92.0 OBJ File: 'Cibi_Tools.blend'
# www.blender.org
o wrench1.001_Cube.007
v -0.046086 -0.177263 0.024159
v 0.010538 -0.149970 0.024159
v -0.043783 -0.145972 0.024159
v -0.043783 -0.145972 -0.024159
v 0.010538 -0.149970 -0.024159
v 0.013594 -0.108452 0.024159
v 0.013594 -0.108452 -0.024159
v -0.040727 -0.104454 0.024159
v -0.040727 -0.104454 -0.024159
v -0.027711 0.072395 -0.024159
v 0.026610 0.068397 0.024159
v 0.026610 0.068397 -0.024159
v -0.027711 0.072395 0.024159
v -0.024731 0.112886 0.024159
v 0.033161 0.157401 0.024159
v 0.102256 0.103539 0.024159
v 0.029590 0.108888 0.008053
v 0.029590 0.108888 0.024159
v 0.029590 0.108888 -0.024159
v 0.033161 0.157401 -0.024159
v -0.024731 0.112886 -0.024159
v -0.046086 -0.177263 -0.024159
v -0.069237 -0.144099 -0.024159
v -0.069237 -0.144099 0.024159
v -0.023745 0.126284 -0.024159
v 0.013954 0.158814 -0.024159
v -0.017748 0.143495 -0.024159
v -0.003949 0.155402 -0.024159
v 0.013954 0.158814 0.024159
v -0.023745 0.126284 0.024159
v -0.003949 0.155402 0.024159
v -0.017748 0.143495 0.024159
v -0.016514 -0.179440 0.024159
v 0.010056 -0.156513 0.024159
v 0.001520 -0.173479 0.024159
v -0.046791 -0.177211 -0.024159
v -0.069718 -0.150641 -0.024159
v -0.063758 -0.168675 -0.024159
v -0.069718 -0.150641 0.024159
v -0.046791 -0.177211 0.024159
v -0.063758 -0.168675 0.024159
v 0.010056 -0.156513 -0.024159
v -0.016514 -0.179440 -0.024159
v 0.001520 -0.173479 -0.024159
v -0.026276 0.091897 0.024159
v 0.028045 0.087899 0.024159
v -0.026276 0.091897 -0.024159
v 0.028045 0.087899 -0.024159
v 0.012379 -0.124954 -0.024159
v 0.012379 -0.124954 0.024159
v -0.041942 -0.120956 0.024159
v -0.041942 -0.120956 -0.024159
v 0.029590 0.108888 -0.008053
v 0.102256 0.103539 -0.024159
v 0.033161 0.157401 -0.008053
v 0.033161 0.157401 0.008053
v 0.102256 0.103539 -0.008053
v 0.102256 0.103539 0.008053
v 0.102658 0.108992 0.024159
v 0.062767 0.155222 0.024159
v 0.098473 0.130947 0.024159
v 0.083872 0.147868 0.024159
v 0.062767 0.155222 -0.024159
v 0.102658 0.108992 -0.024159
v 0.083872 0.147868 -0.024159
v 0.098473 0.130947 -0.024159
v 0.102658 0.108992 -0.008053
v 0.062767 0.155222 -0.008053
v 0.098473 0.130947 -0.008053
v 0.083872 0.147868 -0.008053
v 0.062767 0.155222 0.008053
v 0.102658 0.108992 0.008053
v 0.083872 0.147868 0.008053
v 0.098473 0.130947 0.008053
vt 0.351296 0.462473
vt 0.245705 0.462473
vt 0.245705 0.449756
vt 0.259796 0.415739
vt 0.293813 0.401649
vt 0.351296 0.401649
vt 0.496550 0.680654
vt 0.496467 0.677007
vt 0.507210 0.676763
vt 0.507293 0.680410
vt 0.245705 0.507514
vt 0.351296 0.507514
vt 0.351296 0.556142
vt 0.245705 0.556142
vt 0.351296 0.616966
vt 0.400773 0.556142
vt 0.400773 0.568859
vt 0.386683 0.602876
vt 0.352666 0.616966
vt 0.319538 0.783589
vt 0.213948 0.783589
vt 0.213948 0.742791
vt 0.319538 0.742791
vt 0.213948 0.648490
vt 0.251282 0.648490
vt 0.285410 0.657635
vt 0.310394 0.682619
vt 0.319538 0.716747
vt 0.351296 0.511101
vt 0.245705 0.511101
vt 0.513635 0.959610
vt 0.481406 0.960342
vt 0.481155 0.949304
vt 0.513384 0.948573
vt 0.207796 0.542900
vt 0.207796 0.648490
vt 0.166998 0.648490
vt 0.166998 0.542900
vt 0.352666 0.401649
vt 0.386683 0.415739
vt 0.400773 0.449756
vt 0.400773 0.462474
vt 0.293812 0.616966
vt 0.259796 0.602876
vt 0.245705 0.568859
vt 0.470325 0.472497
vt 0.502554 0.471765
vt 0.502805 0.482802
vt 0.470576 0.483534
vt 0.072697 0.542900
vt 0.072697 0.485350
vt 0.083911 0.443500
vt 0.114547 0.412863
vt 0.156398 0.401649
vt 0.166997 0.401649
vt 0.140953 0.648490
vt 0.106825 0.639346
vt 0.081842 0.614362
vt 0.072697 0.580234
vt 0.245705 0.648490
vt 0.245705 0.542900
vt 0.213948 0.821499
vt 0.319538 0.821499
vt 0.351296 0.543178
vt 0.245705 0.543178
vt 0.245705 0.475437
vt 0.351296 0.475437
vt 0.508759 0.744934
vt 0.498016 0.745178
vt 0.497566 0.725377
vt 0.508309 0.725133
vt 0.473262 0.601814
vt 0.505491 0.601082
vt 0.505787 0.614125
vt 0.473559 0.614857
vt 0.487273 0.745422
vt 0.476530 0.745666
vt 0.476080 0.725865
vt 0.486823 0.725621
vt 0.634547 0.804846
vt 0.737146 0.804846
vt 0.737146 0.958526
vt 0.725614 0.958526
vt 0.680081 0.946325
vt 0.646748 0.912992
vt 0.634547 0.867459
vt 0.072697 0.742791
vt 0.072697 0.732192
vt 0.083911 0.690341
vt 0.114548 0.659704
vt 0.156398 0.648490
vt 0.634547 0.770875
vt 0.634547 0.708262
vt 0.646748 0.662729
vt 0.680081 0.629396
vt 0.725614 0.617195
vt 0.737146 0.617195
vt 0.737146 0.770875
vt 0.473878 0.628895
vt 0.484621 0.628651
vt 0.485724 0.677251
vt 0.474981 0.677495
vt 0.495363 0.628407
vt 0.506106 0.628163
vt 0.468821 0.406274
vt 0.501050 0.405542
vt 0.501499 0.425320
vt 0.469270 0.426052
vt 0.469558 0.438721
vt 0.501787 0.437989
vt 0.502074 0.450658
vt 0.469846 0.451390
vt 0.500748 0.392311
vt 0.468520 0.393043
vt 0.468232 0.380374
vt 0.500461 0.379642
vt 0.501036 0.404979
vt 0.468807 0.405711
vt 0.477374 0.782826
vt 0.509603 0.782094
vt 0.509879 0.794251
vt 0.477650 0.794983
vt 0.477098 0.770669
vt 0.509327 0.769937
vt 0.476822 0.758512
vt 0.509050 0.757780
vt 0.468132 0.375998
vt 0.500361 0.375266
vt 0.469945 0.455765
vt 0.502174 0.455033
vt 0.510401 0.817249
vt 0.478173 0.817981
vt 0.477854 0.803944
vt 0.510082 0.803212
vt 0.514015 0.976341
vt 0.481786 0.977073
vt 0.510697 0.830293
vt 0.478469 0.831025
vt 0.475742 0.710958
vt 0.486484 0.710714
vt 0.475403 0.696050
vt 0.486146 0.695806
vt 0.475064 0.681142
vt 0.485807 0.680898
vt 0.497227 0.710470
vt 0.507970 0.710226
vt 0.496889 0.695562
vt 0.507632 0.695318
vt 0.356125 0.150612
vt 0.099395 0.150612
vt 0.099395 0.071754
vt 0.356125 0.071754
vt 0.021542 0.269439
vt 0.292958 0.267226
vt 0.293638 0.350594
vt 0.022222 0.352807
vt 0.128721 0.181802
vt 0.128498 0.096299
vt 0.442295 0.095480
vt 0.442518 0.180983
vt 0.083911 0.199925
vt 0.084121 0.123056
vt 0.366232 0.123826
vt 0.366022 0.200696
vn 0.0000 0.0000 -1.0000
vn 0.9984 0.0574 -0.0000
vn 0.9973 -0.0734 -0.0000
vn -0.0000 -0.0000 1.0000
vn -0.9973 0.0734 0.0000
vn 0.0734 0.9973 0.0000
vn 0.2029 0.9792 0.0000
vn -0.0734 -0.9973 -0.0000
vn 0.1226 -0.9925 0.0000
vn 0.6533 -0.7571 0.0000
vn 0.9638 -0.2666 0.0000
vn -0.7571 -0.6533 0.0000
vn -0.9925 -0.1226 0.0000
vn -0.2666 -0.9638 0.0000
vn -0.8270 0.5622 0.0000
vn -0.9792 0.2029 0.0000
vn -0.4351 0.9004 -0.0000
vn -0.0574 0.9984 -0.0000
vn 0.5622 0.8270 0.0000
vn 0.9004 0.4351 0.0000
g wrench1.001_Cube.007_tools_metal
s 1
f 4/1/1 5/2/1 42/3/1 44/4/1 43/5/1 22/6/1
f 67/7/2 57/8/3 54/9/3 64/10/2
f 50/11/4 51/12/4 3/13/4 2/14/4
f 1/15/4 3/13/4 24/16/4 39/17/4 41/18/4 40/19/4
f 45/20/4 46/21/4 18/22/4 14/23/4
f 14/23/4 18/22/4 15/24/4 29/25/4 31/26/4 32/27/4 30/28/4
f 52/29/1 49/30/1 5/2/1 4/1/1
f 52/31/5 51/32/5 8/33/5 9/34/5
f 48/35/1 47/36/1 21/37/1 19/38/1
f 4/1/1 22/6/1 36/39/1 38/40/1 37/41/1 23/42/1
f 2/14/4 3/13/4 1/15/4 33/43/4 35/44/4 34/45/4
f 50/46/3 49/47/3 7/48/3 6/49/3
f 19/38/1 20/50/1 63/51/1 65/52/1 66/53/1 64/54/1 54/55/1
f 19/38/1 21/37/1 25/56/1 27/57/1 28/58/1 26/59/1 20/50/1
f 10/60/1 47/36/1 48/35/1 12/61/1
f 11/62/4 46/21/4 45/20/4 13/63/4
f 52/29/1 9/64/1 7/65/1 49/30/1
f 50/11/4 6/66/4 8/67/4 51/12/4
f 20/68/6 55/69/6 68/70/7 63/71/7
f 11/72/3 12/73/3 48/74/3 46/75/3
f 56/76/6 15/77/6 60/78/7 71/79/7
f 55/80/4 53/81/4 57/82/4 67/83/4 69/84/4 70/85/4 68/86/4
f 15/24/4 18/22/4 16/87/4 59/88/4 61/89/4 62/90/4 60/91/4
f 56/92/1 71/93/1 73/94/1 74/95/1 72/96/1 58/97/1 17/98/1
f 56/92/3 17/98/3 53/81/3 55/80/3
f 18/99/8 17/100/8 58/101/8 16/102/8
f 53/103/8 19/104/8 54/9/8 57/8/8
f 1/105/8 22/106/8 43/107/9 33/108/9
f 35/109/10 44/110/10 42/111/11 34/112/11
f 33/108/9 43/107/9 44/110/10 35/109/10
f 38/113/12 41/114/12 39/115/13 37/116/13
f 36/117/14 40/118/14 41/114/12 38/113/12
f 32/119/15 27/120/15 25/121/16 30/122/16
f 31/123/17 28/124/17 27/120/15 32/119/15
f 29/125/18 26/126/18 28/124/17 31/123/17
f 24/127/5 23/128/5 37/116/13 39/115/13
f 49/47/3 50/46/3 2/129/3 5/130/3
f 5/130/3 2/129/3 34/112/11 42/111/11
f 22/106/8 1/105/8 40/118/14 36/117/14
f 3/13/6 4/1/6 23/42/6 24/16/6
f 46/75/3 48/74/3 19/104/3 53/103/3 17/100/3 18/99/3
f 47/131/5 45/132/5 14/133/5 21/134/5
f 21/134/5 14/133/5 30/122/16 25/121/16
f 15/77/6 56/76/6 55/69/6 20/68/6 26/126/18 29/125/18
f 51/32/5 52/31/5 4/135/5 3/136/5
f 10/137/5 13/138/5 45/132/5 47/131/5
f 71/79/7 60/78/7 62/139/19 73/140/19
f 73/140/19 62/139/19 61/141/20 74/142/20
f 74/142/20 61/141/20 59/143/2 72/144/2
f 63/71/7 68/70/7 70/145/19 65/146/19
f 65/146/19 70/145/19 69/147/20 66/148/20
f 66/148/20 69/147/20 67/7/2 64/10/2
f 59/143/2 16/102/3 58/101/3 72/144/2
g wrench1.001_Cube.007_tools_paint
f 9/149/1 10/150/1 12/151/1 7/152/1
f 6/153/4 11/154/4 13/155/4 8/156/4
f 6/157/3 7/158/3 12/159/3 11/160/3
f 9/161/5 8/162/5 13/163/5 10/164/5
