# Blender v2.92.0 OBJ File: 'Cibi_Tools.blend'
# www.blender.org
o hammer_Cube.006
v 0.031950 -0.027673 0.028875
v 0.031950 -0.172626 0.028875
v 0.027234 -0.178860 -0.024159
v 0.027234 -0.178860 0.024159
v -0.027234 -0.178860 0.024159
v -0.027234 -0.178860 -0.024159
v 0.027234 0.033029 0.024159
v 0.027234 -0.021439 0.024159
v -0.027234 0.033029 0.024159
v -0.027234 -0.021439 0.024159
v 0.027234 0.033029 -0.024159
v 0.027234 -0.021439 -0.024159
v -0.027234 0.033029 -0.024159
v -0.027234 -0.021439 -0.024159
v -0.031951 -0.172626 -0.028875
v -0.031951 -0.027673 -0.028875
v 0.009476 -0.211773 0.006401
v 0.027234 -0.194015 0.024159
v 0.022033 -0.206572 0.018958
v -0.009476 -0.211773 0.006401
v -0.027234 -0.194015 0.024159
v -0.022033 -0.206572 0.018958
v -0.009476 -0.211773 -0.006401
v -0.027234 -0.194015 -0.024159
v -0.022033 -0.206572 -0.018958
v 0.009476 -0.211773 -0.006401
v 0.027234 -0.194015 -0.024159
v 0.022033 -0.206572 -0.018958
v -0.031951 -0.172626 0.028875
v 0.031950 -0.027673 -0.028875
v 0.031950 -0.172626 -0.028875
v -0.031951 -0.027673 0.028875
v -0.027234 0.088259 -0.024159
v 0.027234 0.088259 -0.024159
v 0.027234 0.088259 0.024159
v -0.027234 0.088259 0.024159
v -0.013557 0.155965 -0.010482
v 0.013557 0.155965 -0.010482
v 0.013557 0.155965 0.010482
v -0.013557 0.155965 0.010482
v 0.027234 0.102762 0.024159
v -0.027234 0.102762 0.024159
v -0.027234 0.102762 -0.024159
v 0.027234 0.102762 -0.024159
v -0.048347 0.064858 -0.044011
v -0.048347 0.146123 -0.044011
v 0.048347 0.064858 -0.044011
v 0.048347 0.146123 -0.044011
v -0.048347 0.064858 0.044011
v -0.048347 0.146123 0.044011
v 0.048347 0.064858 0.044011
v 0.048347 0.146123 0.044011
v -0.067098 0.064858 -0.044011
v -0.086499 0.081163 -0.026350
v -0.086499 0.129818 -0.026350
v -0.067098 0.146123 -0.044011
v 0.067098 0.146123 -0.044011
v 0.086499 0.129818 -0.026350
v 0.086499 0.081163 -0.026350
v 0.067098 0.064858 -0.044011
v 0.086499 0.081163 0.026350
v 0.067098 0.064858 0.044011
v 0.067098 0.146123 0.044011
v 0.086499 0.129818 0.026350
v -0.067098 0.146123 0.044011
v -0.086499 0.129818 0.026350
v -0.086499 0.081163 0.026350
v -0.067098 0.064858 0.044011
v 0.027234 0.155965 0.024159
v -0.027234 0.155965 0.024159
v 0.027234 0.155965 -0.024159
v -0.027234 0.155965 -0.024159
vt 0.049547 0.083390
vt 0.133685 0.082587
vt 0.134489 0.166725
vt 0.050350 0.167529
vt 0.306144 0.192479
vt 0.222637 0.191383
vt 0.223609 0.117306
vt 0.307115 0.118401
vt 0.050350 0.167529
vt 0.134489 0.166725
vt 0.135292 0.250864
vt 0.051153 0.251668
vt 0.307115 0.118401
vt 0.223609 0.117306
vt 0.224580 0.043228
vt 0.308087 0.044323
vt 0.943519 0.228952
vt 0.964383 0.281011
vt 0.956576 0.290718
vt 0.935064 0.230543
vt 0.219804 0.165911
vt 0.220608 0.250050
vt 0.827894 0.184958
vt 0.823934 0.139297
vt 0.832427 0.137716
vt 0.835295 0.185314
vt 0.823461 0.231850
vt 0.829905 0.233823
vt 0.939311 0.178001
vt 0.931906 0.177691
vt 0.808742 0.278228
vt 0.959850 0.084602
vt 0.936550 0.134033
vt 0.809178 0.070881
vt 0.943007 0.136001
vt 0.801283 0.080498
vt 0.804241 0.271270
vt 0.964383 0.091521
vt 0.243011 0.249836
vt 0.242208 0.165697
vt 0.324392 0.164912
vt 0.325196 0.249051
vt 0.219001 0.081772
vt 0.219804 0.165911
vt 0.137962 0.190273
vt 0.138934 0.116195
vt 0.138934 0.116195
vt 0.139906 0.042117
vt 0.927951 0.185124
vt 0.927951 0.227110
vt 0.873647 0.227110
vt 0.873647 0.185124
vt 0.117670 0.041826
vt 0.116699 0.115903
vt 0.035132 0.114834
vt 0.036103 0.040756
vt 0.242208 0.165697
vt 0.241404 0.081558
vt 0.323589 0.080774
vt 0.324392 0.164912
vt 0.116699 0.115903
vt 0.115727 0.189981
vt 0.034160 0.188911
vt 0.035132 0.114834
vt 0.296575 0.783971
vt 0.295612 0.937048
vt 0.113470 0.935902
vt 0.114433 0.782824
vt 0.115397 0.629747
vt 0.114434 0.782824
vt 0.079113 0.782602
vt 0.080076 0.629525
vt 0.297539 0.630893
vt 0.296575 0.783971
vt 0.095987 0.838127
vt 0.097815 0.978868
vt 0.067834 0.979257
vt 0.066006 0.838517
vt 0.543908 0.797979
vt 0.432044 0.797979
vt 0.432044 0.675094
vt 0.543908 0.675094
vt 0.250594 0.836119
vt 0.252422 0.976860
vt 0.280575 0.835730
vt 0.282402 0.976470
vt 0.432044 0.651265
vt 0.543908 0.651265
vt 0.332859 0.631115
vt 0.331896 0.784193
vt 0.078150 0.935680
vt 0.079113 0.782602
vt 0.543908 0.821808
vt 0.432044 0.821808
vt 0.158514 0.986297
vt 0.015770 0.986297
vt 0.015770 0.831683
vt 0.158514 0.831683
vt 0.015840 0.829452
vt 0.158584 0.829452
vt 0.158584 0.984066
vt 0.015840 0.984066
vt 0.381122 0.815218
vt 0.380545 0.906868
vt 0.330932 0.937270
vt 0.331896 0.784193
vt 0.028923 0.904655
vt 0.029500 0.813005
vt 0.521463 0.854015
vt 0.454489 0.854015
vt 0.321462 0.863442
vt 0.322557 0.947706
vt 0.382085 0.662140
vt 0.381509 0.753790
vt 0.029887 0.751577
vt 0.030463 0.659928
vt 0.454489 0.619058
vt 0.521463 0.619058
vt 0.026946 0.951545
vt 0.025852 0.867282
vt 0.114651 0.145451
vt 0.060347 0.145451
vt 0.032956 0.118059
vt 0.142042 0.118059
vt 0.114651 0.187437
vt 0.142042 0.214828
vt 0.060347 0.187437
vt 0.032956 0.214828
vt 0.034460 0.064765
vt 0.200477 0.063357
vt 0.163650 0.106463
vt 0.075530 0.102667
vt 0.034460 0.241479
vt 0.071287 0.198373
vt 0.123539 0.164250
vt 0.108738 0.162255
vt 0.111399 0.140586
vt 0.126199 0.142581
vt 0.200477 0.240071
vt 0.159407 0.202169
vt 0.096918 0.123782
vt 0.142890 0.128248
vt 0.138020 0.181054
vt 0.092047 0.176588
vn 0.0000 0.0000 -1.0000
vn 1.0000 0.0000 0.0000
vn 0.0000 -0.0000 1.0000
vn -1.0000 -0.0000 0.0000
vn -0.4828 0.7306 0.4828
vn -0.4828 0.7306 -0.4828
vn 0.4828 -0.7306 0.4828
vn 0.4828 -0.7306 -0.4828
vn -0.4828 -0.7306 0.4828
vn 0.4828 0.7306 0.4828
vn 0.4828 0.7306 -0.4828
vn -0.4828 -0.7306 -0.4828
vn 0.0000 1.0000 0.0000
vn 0.0000 -1.0000 -0.0000
vn -0.6732 0.0000 -0.7395
vn 0.6732 0.0000 -0.7395
vn 0.6434 -0.7655 -0.0000
vn 0.6434 0.7655 0.0000
vn 0.6732 -0.0000 0.7395
vn -0.6732 -0.0000 0.7395
vn -0.6434 -0.7655 -0.0000
vn -0.6434 0.7655 0.0000
vn -0.6871 -0.2361 -0.6871
vn -0.6871 -0.2361 0.6871
vn 0.6871 -0.2361 0.6871
vn 0.1481 -0.9778 -0.1481
vn 0.1481 -0.9778 0.1481
vn -0.1481 -0.9778 0.1481
vn -0.1481 -0.9778 -0.1481
vn 0.6871 -0.2361 -0.6871
vn -0.4975 -0.7106 0.4975
vn -0.4975 -0.7106 -0.4975
vn 0.4975 -0.7106 -0.4975
vn 0.4975 -0.7106 0.4975
g hammer_Cube.006_tools_metal
s 1
f 14/1/1 13/2/1 11/3/1 12/4/1
f 12/5/2 11/6/2 7/7/2 8/8/2
f 8/9/3 7/10/3 9/11/3 10/12/3
f 10/13/4 9/14/4 13/15/4 14/16/4
f 10/17/5 14/18/6 16/19/6 32/20/5
f 9/11/3 7/10/3 35/21/3 36/22/3
f 4/23/7 3/24/8 31/25/8 2/26/7
f 5/27/9 4/23/7 2/26/7 29/28/9
f 8/29/10 10/17/5 32/20/5 1/30/10
f 32/20/4 16/19/4 15/31/4 29/28/4
f 16/32/1 30/33/1 31/25/1 15/34/1
f 1/30/3 32/20/3 29/28/3 2/26/3
f 30/33/2 1/30/2 2/26/2 31/25/2
f 12/35/11 8/29/10 1/30/10 30/33/11
f 3/24/8 6/36/12 15/34/12 31/25/8
f 6/37/12 5/27/9 29/28/9 15/31/12
f 14/38/6 12/35/11 30/33/11 16/32/6
f 42/39/3 41/40/3 69/41/3 70/42/3
f 11/3/1 13/2/1 33/43/1 34/44/1
f 7/7/2 11/6/2 34/45/2 35/46/2
f 13/15/4 9/14/4 36/47/4 33/48/4
f 39/49/13 38/50/13 37/51/13 40/52/13
f 43/53/4 42/54/4 70/55/4 72/56/4
f 44/57/1 43/58/1 72/59/1 71/60/1
f 41/61/2 44/62/2 71/63/2 69/64/2
f 35/46/2 34/45/2 44/62/2 41/61/2
f 34/44/1 33/43/1 43/58/1 44/57/1
f 33/48/4 36/47/4 42/54/4 43/53/4
f 36/22/3 35/21/3 41/40/3 42/39/3
f 45/65/1 46/66/1 48/67/1 47/68/1
f 49/69/3 50/70/3 65/71/3 68/72/3
f 51/73/3 52/74/3 50/70/3 49/69/3
f 50/75/13 46/76/13 56/77/13 65/78/13
f 47/79/14 51/80/14 49/81/14 45/82/14
f 52/83/13 48/84/13 46/76/13 50/75/13
f 48/84/13 52/83/13 63/85/13 57/86/13
f 45/82/14 49/81/14 68/87/14 53/88/14
f 52/74/3 51/73/3 62/89/3 63/90/3
f 47/68/1 48/67/1 57/91/1 60/92/1
f 51/80/14 47/79/14 60/93/14 62/94/14
f 59/95/2 58/96/2 64/97/2 61/98/2
f 67/99/4 66/100/4 55/101/4 54/102/4
f 54/103/15 55/104/15 56/105/15 53/106/15
f 58/107/16 59/108/16 60/92/16 57/91/16
f 62/94/17 60/93/17 59/109/17 61/110/17
f 57/86/18 63/85/18 64/111/18 58/112/18
f 63/90/19 62/89/19 61/113/19 64/114/19
f 66/115/20 67/116/20 68/72/20 65/71/20
f 53/88/21 68/87/21 67/117/21 54/118/21
f 65/78/22 56/77/22 55/119/22 66/120/22
f 46/66/1 45/65/1 53/106/1 56/105/1
f 39/121/13 40/122/13 70/123/13 69/124/13
f 38/125/13 39/121/13 69/124/13 71/126/13
f 37/127/13 38/125/13 71/126/13 72/128/13
f 40/122/13 37/127/13 72/128/13 70/123/13
g hammer_Cube.006_tools_paint
f 5/129/4 6/130/4 24/131/23 21/132/24
f 4/133/3 5/129/3 21/132/24 18/134/25
f 26/135/26 17/136/27 20/137/28 23/138/29
f 6/130/1 3/139/1 27/140/30 24/131/23
f 23/138/29 20/137/28 22/141/31 25/142/32
f 25/142/32 22/141/31 21/132/24 24/131/23
f 17/136/27 26/135/26 28/143/33 19/144/34
f 19/144/34 28/143/33 27/140/30 18/134/25
f 26/135/26 23/138/29 25/142/32 28/143/33
f 28/143/33 25/142/32 24/131/23 27/140/30
f 20/137/28 17/136/27 19/144/34 22/141/31
f 22/141/31 19/144/34 18/134/25 21/132/24
f 3/139/2 4/133/2 18/134/25 27/140/30
