# Blender v2.92.0 OBJ File: 'Cibi_Tools.blend'
# www.blender.org
o wrench1.002_Cube.018
v 0.032246 0.160934 -0.028506
v 0.045603 0.128688 -0.028506
v 0.032246 0.096442 -0.028506
v 0.000000 0.083085 -0.028506
v -0.032246 0.096442 -0.028506
v -0.045603 0.128688 -0.028506
v -0.032246 0.160934 -0.028506
v -0.032246 0.160934 0.028506
v -0.045603 0.128688 0.028506
v -0.032246 0.096442 0.028506
v 0.000000 0.083085 0.028506
v 0.032246 0.096442 0.028506
v 0.045603 0.128688 0.028506
v 0.032246 0.160934 0.028506
v 0.034868 0.056130 -0.006732
v 0.054358 0.074330 -0.028506
v 0.076874 0.128688 -0.028506
v 0.086118 0.128688 -0.022721
v -0.034844 0.056210 -0.006732
v -0.054358 0.074330 -0.028506
v 0.000000 0.051814 -0.025965
v -0.000006 0.041882 -0.009328
v -0.054358 0.183046 -0.028506
v -0.060895 0.189583 -0.022721
v -0.076874 0.128688 -0.028506
v -0.086118 0.128688 -0.022721
v 0.060895 0.189583 -0.022721
v 0.054358 0.183046 -0.028506
v -0.060895 0.189583 0.022722
v -0.054358 0.183046 0.028506
v -0.076874 0.128688 0.028506
v -0.086118 0.128688 0.022722
v -0.034844 0.056210 0.006732
v -0.054358 0.074330 0.028506
v 0.000000 0.051814 0.025965
v -0.000006 0.041882 0.009328
v 0.034868 0.056130 0.006732
v 0.054358 0.074330 0.028506
v 0.076874 0.128688 0.028506
v 0.086118 0.128688 0.022722
v 0.054358 0.183046 0.028506
v 0.060895 0.189583 0.022722
v -0.000006 0.041882 -0.021076
v -0.061269 0.066866 -0.021076
v 0.061256 0.066910 -0.021076
v -0.000006 0.041882 0.021077
v 0.061256 0.066910 0.021077
v -0.061269 0.066866 0.021077
v 0.000000 -0.005603 0.009194
v 0.000000 -0.005603 -0.009194
v -0.013571 -0.005593 -0.008545
v 0.013571 -0.005593 -0.008545
v 0.013571 -0.005593 0.008545
v -0.013571 -0.005593 0.008545
v 0.000000 -0.171686 0.014409
v 0.000000 -0.171686 -0.014409
v -0.004228 -0.170762 -0.013343
v -0.013562 -0.162489 -0.011686
v -0.011369 -0.167801 -0.012151
v 0.013562 -0.162489 -0.011686
v 0.004228 -0.170762 -0.013343
v 0.011369 -0.167801 -0.012151
v 0.004228 -0.170762 0.013343
v 0.013562 -0.162489 0.011686
v 0.011369 -0.167801 0.012151
v -0.013562 -0.162489 0.011686
v -0.004228 -0.170762 0.013343
v -0.011369 -0.167801 0.012151
v 0.000000 0.011875 -0.008768
v -0.030955 0.011875 -0.006328
v 0.030955 0.011875 -0.006328
v 0.000000 0.011875 0.008768
v 0.030955 0.011875 0.006328
v -0.030955 0.011875 0.006328
v 0.024661 -0.181219 -0.011113
v 0.030955 -0.166024 -0.009984
v 0.030955 -0.166024 0.009983
v 0.024661 -0.181219 0.011113
v 0.009466 -0.187514 -0.013216
v 0.009466 -0.187514 0.013216
v -0.024661 -0.181219 0.011113
v -0.030955 -0.166024 0.009983
v -0.030955 -0.166024 -0.009984
v -0.024661 -0.181219 -0.011113
v -0.009466 -0.187514 0.013216
v -0.009466 -0.187514 -0.013216
v 0.000000 -0.189583 -0.014446
v 0.000000 -0.189583 0.014445
v 0.000000 -0.005703 0.005212
v 0.000000 -0.171785 0.010427
v 0.000000 -0.005703 -0.005212
v 0.000000 -0.171785 -0.010427
v -0.013109 -0.005692 -0.004590
v 0.013109 -0.005692 -0.004590
v 0.013109 -0.005692 0.004590
v -0.013109 -0.005692 0.004590
v 0.010907 -0.167900 -0.008196
v 0.013101 -0.162588 -0.007731
v 0.013101 -0.162588 0.007730
v 0.010907 -0.167900 0.008196
v 0.003766 -0.170861 -0.009388
v 0.003766 -0.170861 0.009388
v -0.010907 -0.167900 0.008196
v -0.013101 -0.162588 0.007730
v -0.013101 -0.162588 -0.007731
v -0.010907 -0.167900 -0.008196
v -0.003767 -0.170861 0.009388
v -0.003767 -0.170861 -0.009388
v 0.000000 -0.161707 0.010110
v 0.000000 -0.167303 0.010286
v 0.000000 -0.161930 -0.010117
v 0.000000 -0.167075 -0.010279
vt 0.191140 0.874007
vt 0.180150 0.837324
vt 0.210978 0.827662
vt 0.220659 0.878263
vt 0.098226 0.836573
vt 0.092365 0.877633
vt 0.058738 0.884314
vt 0.064604 0.826500
vt 0.144659 0.922159
vt 0.176643 0.907467
vt 0.197621 0.928379
vt 0.146379 0.953813
vt 0.041536 0.884012
vt 0.042950 0.826786
vt 0.079173 0.826786
vt 0.080587 0.884012
vt 0.445433 0.657594
vt 0.445433 0.605982
vt 0.529736 0.605982
vt 0.529736 0.657594
vt 0.445433 0.554370
vt 0.529736 0.554370
vt 0.056297 0.779888
vt 0.064960 0.775225
vt 0.096319 0.766707
vt 0.055147 0.821587
vt 0.110961 0.910173
vt 0.090725 0.934744
vt 0.041536 0.940652
vt 0.080587 0.940652
vt 0.042950 0.713065
vt 0.041536 0.655808
vt 0.080587 0.655808
vt 0.079173 0.713065
vt 0.211718 0.777444
vt 0.220819 0.782541
vt 0.219335 0.823081
vt 0.178404 0.765430
vt 0.162104 0.964382
vt 0.147496 0.963956
vt 0.149338 0.915767
vt 0.163069 0.916166
vt 0.136146 0.680515
vt 0.102824 0.693582
vt 0.082444 0.671465
vt 0.135792 0.648286
vt 0.187272 0.726656
vt 0.169832 0.693628
vt 0.190886 0.669898
vt 0.220293 0.721277
vt 0.087226 0.727332
vt 0.056818 0.721811
vt 0.445433 0.709205
vt 0.529736 0.709205
vt 0.445433 0.502759
vt 0.529736 0.502759
vt 0.445433 0.451147
vt 0.529736 0.451147
vt 0.445433 0.399536
vt 0.529736 0.399536
vt 0.041536 0.599168
vt 0.080587 0.599168
vt 0.231050 0.879492
vt 0.205906 0.937307
vt 0.147075 0.964828
vt 0.083235 0.945225
vt 0.047909 0.886960
vt 0.046064 0.720175
vt 0.074388 0.661920
vt 0.135597 0.637130
vt 0.198810 0.659806
vt 0.231050 0.719156
vt 0.346661 0.786456
vt 0.287281 0.810693
vt 0.293805 0.735516
vt 0.346586 0.735434
vt 0.069077 0.769919
vt 0.066846 0.737549
vt 0.079173 0.769919
vt 0.066846 0.802291
vt 0.053045 0.769919
vt 0.055276 0.802291
vt 0.042950 0.769919
vt 0.055277 0.737548
vt 0.720870 0.437806
vt 0.720870 0.842357
vt 0.710696 0.835316
vt 0.707035 0.443472
vt 0.720884 0.447252
vt 0.711715 0.847653
vt 0.701806 0.840455
vt 0.707065 0.452553
vt 0.406853 0.810693
vt 0.347474 0.786456
vt 0.347548 0.735433
vt 0.400330 0.735516
vt 0.406047 0.810693
vt 0.399385 0.735382
vt 0.164231 0.389026
vt 0.178839 0.389451
vt 0.176995 0.437726
vt 0.163264 0.437326
vt 0.288087 0.810693
vt 0.294750 0.735382
vt 0.175343 0.630859
vt 0.153680 0.630228
vt 0.150990 0.722634
vt 0.172653 0.723264
vt 0.147493 0.676290
vt 0.149133 0.665816
vt 0.177812 0.666651
vt 0.178839 0.677202
vt 0.610170 0.441491
vt 0.621676 0.420629
vt 0.631586 0.430613
vt 0.624350 0.446224
vt 0.148521 0.686841
vt 0.177200 0.687676
vt 0.150283 0.704753
vt 0.174399 0.705455
vt 0.176049 0.648739
vt 0.151934 0.648038
vt 0.681515 0.403842
vt 0.708001 0.417755
vt 0.698776 0.428376
vt 0.677905 0.417612
vt 0.346539 0.705692
vt 0.369631 0.705689
vt 0.323492 0.705754
vt 0.347595 0.705692
vt 0.370643 0.705754
vt 0.324504 0.705689
vt 0.326825 0.429236
vt 0.323231 0.438413
vt 0.293331 0.432756
vt 0.303873 0.406679
vt 0.370904 0.438413
vt 0.367310 0.429236
vt 0.390262 0.406679
vt 0.400804 0.432756
vt 0.338917 0.423893
vt 0.329908 0.395652
vt 0.355218 0.423893
vt 0.364227 0.395652
vt 0.328522 0.429522
vt 0.324811 0.438575
vt 0.295083 0.432823
vt 0.305549 0.406996
vt 0.369324 0.438575
vt 0.365613 0.429522
vt 0.388586 0.406996
vt 0.399052 0.432823
vt 0.340723 0.424187
vt 0.331323 0.395858
vt 0.353412 0.424187
vt 0.362812 0.395858
vt 0.346154 0.422193
vt 0.346375 0.392053
vt 0.347981 0.422193
vt 0.347760 0.392053
vt 0.670225 0.848720
vt 0.666143 0.456211
vt 0.638479 0.841113
vt 0.625155 0.453405
vt 0.665949 0.437480
vt 0.699216 0.437430
vt 0.678992 0.844392
vt 0.646754 0.837444
vt 0.665778 0.447421
vt 0.708586 0.427125
vt 0.664168 0.399053
vt 0.664661 0.413876
vt 0.647177 0.404985
vt 0.651695 0.418485
vt 0.648687 0.413104
vt 0.665638 0.407613
vt 0.665791 0.422292
vt 0.652856 0.426567
vt 0.682699 0.412750
vt 0.678812 0.426297
vt 0.679507 0.859861
vt 0.628721 0.848516
vt 0.611229 0.448392
vt 0.623105 0.428014
vt 0.632688 0.438122
vt 0.637071 0.845146
vt 0.670384 0.864039
vt 0.665197 0.429990
vn -0.0000 0.0000 -1.0000
vn 0.3337 0.1382 -0.9325
vn 0.3484 -0.0067 -0.9373
vn -0.3482 -0.0066 -0.9374
vn -0.3337 0.1382 -0.9325
vn -0.0000 -0.0509 -0.9987
vn -0.0041 -0.0255 -0.9997
vn 0.2412 -0.2514 -0.9373
vn 0.0002 -0.3545 -0.9350
vn 1.0000 0.0083 0.0000
vn 0.7113 -0.7029 0.0000
vn -1.0000 0.0000 0.0000
vn -0.7071 0.7071 0.0000
vn 0.0000 1.0000 0.0000
vn 0.7071 0.7071 0.0000
vn 0.0041 -0.0255 -0.9997
vn -0.2410 -0.2510 -0.9375
vn 0.9239 0.3827 0.0000
vn -0.7103 -0.7039 -0.0008
vn -1.0000 0.0085 0.0000
vn -0.7103 -0.7039 0.0008
vn 0.8300 -0.0790 -0.5521
vn 0.8300 -0.0790 0.5521
vn 0.7297 -0.0254 0.6833
vn 0.7297 -0.0254 -0.6833
vn -0.0000 -0.0509 0.9987
vn 0.0041 -0.0255 0.9997
vn -0.2410 -0.2510 0.9375
vn 0.0002 -0.3545 0.9350
vn -0.0000 -0.0000 1.0000
vn -0.0041 -0.0255 0.9997
vn 0.2412 -0.2514 0.9373
vn 0.3484 -0.0067 0.9373
vn -0.3482 -0.0066 0.9374
vn 0.3337 0.1382 0.9325
vn -0.9239 -0.3827 0.0000
vn 1.0000 -0.0000 -0.0000
vn 0.9239 -0.3827 -0.0000
vn -0.3337 0.1382 0.9325
vn -0.9239 0.3827 0.0000
vn 0.5476 -0.0126 -0.8366
vn 0.3755 -0.3899 -0.8409
vn 0.0002 -0.5251 -0.8511
vn -0.3747 -0.3894 -0.8414
vn -0.5473 -0.0125 -0.8368
vn -0.5181 0.2146 -0.8280
vn 0.5181 0.2146 -0.8280
vn -0.5473 -0.0125 0.8368
vn -0.3747 -0.3894 0.8414
vn 0.0002 -0.5251 0.8511
vn 0.3755 -0.3899 0.8409
vn 0.5476 -0.0126 0.8366
vn 0.5181 0.2146 0.8280
vn -0.5181 0.2146 0.8280
vn -0.0001 -0.0172 -0.9999
vn -0.0000 -0.0172 -0.9999
vn -0.0002 -1.0000 0.0029
vn -0.3765 -0.9264 0.0030
vn 0.3782 -0.9257 -0.0000
vn -0.0002 -1.0000 -0.0029
vn -0.3765 -0.9264 -0.0030
vn 0.9739 0.1991 -0.1087
vn 0.7159 -0.6909 -0.1010
vn 0.6873 -0.7197 -0.0983
vn 0.9741 0.1981 -0.1088
vn -0.9739 0.1991 0.1087
vn -0.7159 -0.6909 0.1010
vn -0.6873 -0.7197 0.0983
vn -0.9741 0.1981 0.1088
vn -0.0001 -0.0172 0.9999
vn -0.0000 0.0120 0.9999
vn -0.8305 -0.0784 -0.5515
vn -0.7298 -0.0252 -0.6832
vn -0.8305 -0.0784 0.5515
vn -0.7298 -0.0252 0.6832
vn -0.7693 -0.1271 -0.6261
vn -0.7693 -0.1271 0.6261
vn 0.7693 -0.1271 0.6261
vn 0.7693 -0.1271 -0.6261
vn 0.0000 -0.7181 0.6959
vn -0.3100 -0.6684 0.6761
vn -0.3100 -0.6684 -0.6761
vn 0.0000 -0.7181 -0.6959
vn -0.9739 0.1991 -0.1087
vn -0.6970 0.7142 -0.0635
vn -0.7061 0.7051 -0.0648
vn -0.9741 0.1981 -0.1088
vn 0.3100 -0.6684 0.6761
vn 0.3100 -0.6684 -0.6761
vn 0.5967 -0.5297 0.6028
vn 0.5967 -0.5297 -0.6028
vn -0.5967 -0.5297 -0.6028
vn -0.5967 -0.5297 0.6028
vn 0.3012 0.9536 -0.0043
vn 0.6970 0.7142 -0.0635
vn 0.7061 0.7051 -0.0648
vn 0.3094 0.9509 -0.0060
vn -0.0000 0.0411 -0.9992
vn -0.0866 0.0306 -0.9958
vn 0.0866 0.0306 -0.9958
vn 0.0000 0.0411 0.9992
vn 0.0866 0.0306 0.9958
vn -0.0866 0.0306 0.9958
vn 0.1181 0.0370 -0.9923
vn 0.1055 0.0266 -0.9941
vn 0.1055 0.0266 0.9941
vn 0.1181 0.0370 0.9923
vn 0.1449 0.0314 -0.9889
vn 0.1449 0.0314 0.9889
vn -0.1181 0.0370 0.9923
vn -0.1055 0.0266 0.9941
vn -0.1055 0.0266 -0.9941
vn -0.1181 0.0370 -0.9923
vn -0.1449 0.0314 0.9889
vn -0.1449 0.0314 -0.9889
vn 0.0000 0.0220 -0.9998
vn 0.0000 0.0220 0.9998
vn 0.1146 0.0255 0.9931
vn 0.0000 0.0257 0.9997
vn 0.0000 0.0235 0.9997
vn 0.1461 0.0233 0.9890
vn -0.1146 0.0255 0.9931
vn -0.1461 0.0233 0.9890
vn 0.0000 -0.0017 1.0000
vn 0.1889 0.0120 0.9819
vn 0.0000 0.0257 -0.9997
vn 0.1146 0.0255 -0.9931
vn 0.1457 0.0232 -0.9891
vn 0.0000 0.0232 -0.9997
vn -0.1146 0.0255 -0.9931
vn -0.1457 0.0232 -0.9891
vn -0.6970 0.7142 0.0635
vn -0.7061 0.7051 0.0648
vn -0.0000 0.9999 0.0114
vn -0.3012 0.9536 -0.0043
vn -0.3094 0.9509 -0.0060
vn 0.3012 0.9536 0.0043
vn -0.0000 0.9999 -0.0114
vn 0.3094 0.9509 0.0060
vn -0.3012 0.9536 0.0043
vn -0.3094 0.9509 0.0060
vn 0.0000 -0.9997 -0.0249
vn 0.7159 -0.6909 0.1010
vn 0.9739 0.1991 0.1087
vn 0.9741 0.1981 0.1088
vn 0.6873 -0.7197 0.0983
vn 0.6970 0.7142 0.0635
vn 0.7061 0.7051 0.0648
vn -0.7159 -0.6909 -0.1010
vn -0.6873 -0.7197 -0.0983
vn -0.0000 -0.9997 0.0249
vn -0.1889 0.0120 0.9819
vn 0.0000 -0.0260 0.9997
vn 0.2090 -0.0254 0.9776
vn -0.2090 -0.0254 0.9776
vn 0.1890 0.0118 -0.9819
vn 0.0000 -0.0004 -1.0000
vn -0.1890 0.0118 -0.9819
vn 0.2082 -0.0229 -0.9778
vn 0.0000 -0.0234 -0.9997
vn -0.2082 -0.0229 -0.9778
g wrench1.002_Cube.018_tools_metal
s 1
f 2/1/1 1/2/1 28/3/2 17/4/3
f 7/5/1 6/6/1 25/7/4 23/8/5
f 4/9/6 3/10/7 16/11/8 21/12/9
f 40/13/10 47/14/11 45/15/11 18/16/10
f 2/17/12 3/18/13 12/19/13 13/20/12
f 3/18/13 4/21/14 11/22/14 12/19/13
f 29/23/15 30/24/15 8/25/15 7/5/15 23/8/15 24/26/15
f 6/6/1 5/27/16 20/28/17 25/7/4
f 42/29/18 40/13/10 18/16/10 27/30/18
f 48/31/19 32/32/20 26/33/20 44/34/21
f 41/35/13 42/36/13 27/37/13 28/3/13 1/2/13 14/38/13
f 15/39/22 37/40/23 73/41/24 71/42/25
f 3/10/7 2/1/1 17/4/3 16/11/8
f 5/27/16 4/9/6 21/12/9 20/28/17
f 11/43/26 10/44/27 34/45/28 35/46/29
f 13/47/30 12/48/31 38/49/32 39/50/33
f 10/44/27 9/51/30 31/52/34 34/45/28
f 12/48/31 11/43/26 35/46/29 38/49/32
f 14/38/30 13/47/30 39/50/33 41/35/35
f 1/53/36 2/17/12 13/20/12 14/54/36
f 4/21/14 5/55/15 10/56/15 11/22/14
f 5/55/15 6/57/37 9/58/37 10/56/15
f 6/57/37 7/59/38 8/60/38 9/58/37
f 9/51/30 8/25/30 30/24/39 31/52/34
f 32/32/20 29/61/40 24/62/40 26/33/20
f 16/11/8 17/4/3 18/63/41 45/64/42
f 20/28/17 21/12/9 43/65/43 44/66/44
f 23/8/5 25/7/4 26/67/45 24/26/46
f 17/4/3 28/3/2 27/37/47 18/63/41
f 21/12/9 16/11/8 45/64/42 43/65/43
f 25/7/4 20/28/17 44/66/44 26/67/45
f 32/68/48 48/69/49 34/45/28 31/52/34
f 46/70/50 47/71/51 38/49/32 35/46/29
f 40/72/52 42/36/53 41/35/35 39/50/33
f 29/23/54 32/68/48 31/52/34 30/24/39
f 48/69/49 46/70/50 35/46/29 34/45/28
f 47/71/51 40/72/52 39/50/33 38/49/32
f 22/73/55 15/74/22 71/75/25 69/76/56
f 22/77/57 19/78/58 44/34/21 43/79/57
f 15/80/59 22/77/57 43/79/57 45/15/11
f 36/81/60 37/82/59 47/14/11 46/83/60
f 33/84/61 36/81/60 46/83/60 48/31/19
f 37/82/59 15/80/59 45/15/11 47/14/11
f 19/78/58 33/84/61 48/31/19 44/34/21
f 58/85/62 51/86/63 93/87/64 105/88/65
f 64/89/66 53/90/67 95/91/68 99/92/69
f 37/93/23 36/94/70 72/95/71 73/96/24
f 19/97/72 22/73/55 69/76/56 70/98/73
f 33/99/74 19/100/72 70/101/73 74/102/75
f 36/94/70 33/103/74 74/104/75 72/95/71
f 74/102/75 70/101/73 83/105/76 82/106/77
f 71/42/25 73/41/24 77/107/78 76/108/79
f 88/109/80 85/110/81 86/111/82 87/112/83
f 60/113/84 62/114/85 97/115/86 98/116/87
f 80/117/88 88/109/80 87/112/83 79/118/89
f 76/108/79 77/107/78 78/119/90 75/120/91
f 75/120/91 78/119/90 80/117/88 79/118/89
f 82/106/77 83/105/76 84/121/92 81/122/93
f 81/122/93 84/121/92 86/111/82 85/110/81
f 57/123/94 59/124/95 106/125/96 108/126/97
f 50/127/98 51/128/99 70/98/73 69/76/98
f 52/129/100 50/127/98 69/76/98 71/75/25
f 49/130/101 53/131/102 73/96/24 72/95/71
f 54/132/103 49/130/101 72/95/71 74/104/75
f 62/133/104 60/134/105 76/135/79 75/136/91
f 64/137/106 65/138/107 78/139/90 77/140/78
f 61/141/108 62/133/104 75/136/91 79/142/89
f 65/138/107 63/143/109 80/144/88 78/139/90
f 68/145/110 66/146/111 82/147/77 81/148/93
f 58/149/112 59/150/113 84/151/92 83/152/76
f 67/153/114 68/145/110 81/148/93 85/154/81
f 59/150/113 57/155/115 86/156/82 84/151/92
f 51/128/99 58/149/112 83/152/76 70/98/73
f 57/155/115 56/157/116 87/158/83 86/156/82
f 55/159/117 67/153/114 85/154/81 88/160/80
f 66/146/111 54/132/103 74/104/75 82/147/77
f 60/134/105 52/129/100 71/75/25 76/135/79
f 56/157/116 61/141/108 79/142/89 87/158/83
f 63/143/109 55/159/117 88/160/80 80/144/88
f 95/91/118 89/161/119 109/162/120 99/92/121
f 89/161/119 96/163/122 104/164/123 109/162/120
f 99/92/121 109/162/120 110/165/124 100/166/125
f 91/167/126 94/168/127 98/116/128 111/169/129
f 93/87/130 91/167/126 111/169/129 105/88/131
f 65/170/132 64/89/66 99/92/69 100/166/133
f 56/171/134 57/123/94 108/126/97 92/172/134
f 62/114/85 61/173/135 101/174/136 97/115/86
f 67/175/137 55/176/138 90/177/138 107/178/139
f 63/179/140 65/170/132 100/166/133 102/180/141
f 51/86/63 50/181/142 91/167/142 93/87/64
f 54/182/143 66/183/144 104/164/145 96/163/146
f 66/183/144 68/184/147 103/185/148 104/164/145
f 50/181/142 52/186/149 94/168/150 91/167/142
f 52/186/149 60/113/84 98/116/87 94/168/150
f 59/124/95 58/85/62 105/88/65 106/125/96
f 53/90/67 49/187/151 89/161/151 95/91/68
f 61/173/135 56/171/134 92/172/134 101/174/136
f 68/184/147 67/175/137 107/178/139 103/185/148
f 49/187/151 54/182/143 96/163/146 89/161/151
f 55/176/138 63/179/140 102/180/141 90/177/138
f 64/137/106 77/140/78 73/96/24 53/131/102
f 109/162/120 104/164/123 103/185/152 110/165/124
f 100/166/125 110/165/124 90/177/153 102/180/154
f 110/165/124 103/185/152 107/178/155 90/177/153
f 111/169/129 98/116/128 97/115/156 112/188/157
f 105/88/131 111/169/129 112/188/157 106/125/158
f 112/188/157 97/115/156 101/174/159 92/172/160
f 106/125/158 112/188/157 92/172/160 108/126/161
